<svg width="24" height="25" viewBox="0 0 24 25" fill="none" xmlns="http://www.w3.org/2000/svg">
<g clip-path="url(#clip0_13_27)">
<path d="M12.0027 6.83394C8.59744 6.83394 5.85075 9.57523 5.85075 12.9738C5.85075 16.3724 8.59744 19.1137 12.0027 19.1137C15.4079 19.1137 18.1546 16.3724 18.1546 12.9738C18.1546 9.57523 15.4079 6.83394 12.0027 6.83394ZM12.0027 16.9655C9.80212 16.9655 8.00312 15.1754 8.00312 12.9738C8.00312 10.7722 9.79677 8.98209 12.0027 8.98209C14.2086 8.98209 16.0022 10.7722 16.0022 12.9738C16.0022 15.1754 14.2032 16.9655 12.0027 16.9655ZM19.8412 6.58279C19.8412 7.37899 19.1987 8.01489 18.4062 8.01489C17.6085 8.01489 16.9713 7.37365 16.9713 6.58279C16.9713 5.79192 17.6138 5.15069 18.4062 5.15069C19.1987 5.15069 19.8412 5.79192 19.8412 6.58279ZM23.9157 8.03626C23.8247 6.11789 23.3856 4.4186 21.9775 3.01857C20.5747 1.61853 18.8721 1.18035 16.9499 1.08416C14.9689 0.971946 9.03112 0.971946 7.05008 1.08416C5.1333 1.175 3.43068 1.61318 2.02253 3.01322C0.614389 4.41326 0.180703 6.11254 0.0843279 8.03092C-0.0281093 10.0081 -0.0281093 15.9342 0.0843279 17.9113C0.175349 19.8297 0.614389 21.529 2.02253 22.929C3.43068 24.3291 5.12794 24.7673 7.05008 24.8634C9.03112 24.9757 14.9689 24.9757 16.9499 24.8634C18.8721 24.7726 20.5747 24.3344 21.9775 22.929C23.3803 21.529 23.8193 19.8297 23.9157 17.9113C24.0281 15.9342 24.0281 10.0134 23.9157 8.03626ZM21.3564 20.0328C20.9388 21.0801 20.1303 21.887 19.0755 22.3092C17.496 22.9344 13.7481 22.7901 12.0027 22.7901C10.2572 22.7901 6.50396 22.929 4.92984 22.3092C3.88042 21.8924 3.07195 21.0855 2.64897 20.0328C2.02253 18.4564 2.16709 14.7158 2.16709 12.9738C2.16709 11.2318 2.02789 7.48586 2.64897 5.91483C3.06659 4.86747 3.87507 4.06058 4.92984 3.63843C6.50931 3.01322 10.2572 3.1575 12.0027 3.1575C13.7481 3.1575 17.5014 3.01857 19.0755 3.63843C20.1249 4.05524 20.9334 4.86213 21.3564 5.91483C21.9828 7.49121 21.8383 11.2318 21.8383 12.9738C21.8383 14.7158 21.9828 18.4617 21.3564 20.0328Z" fill="white" fill-opacity="0.8"/>
</g>
<defs>
<clipPath id="clip0_13_27">
<rect width="24" height="23.9476" fill="white" transform="translate(0 0.895199)"/>
</clipPath>
</defs>
</svg>
