<svg width="24" height="25" viewBox="0 0 24 25" fill="none" xmlns="http://www.w3.org/2000/svg">
<g clip-path="url(#clip0_19_274)">
<path d="M12.6727 24.3047C15.2109 21.2941 21 13.9974 21 9.89885C21 4.92808 16.7448 0.895199 11.5 0.895199C6.25521 0.895199 2 4.92808 2 9.89885C2 13.9974 7.78906 21.2941 10.3273 24.3047C10.9359 25.0222 12.0641 25.0222 12.6727 24.3047ZM11.5 6.89763C12.3399 6.89763 13.1453 7.21383 13.7392 7.77667C14.333 8.33951 14.6667 9.10288 14.6667 9.89885C14.6667 10.6948 14.333 11.4582 13.7392 12.021C13.1453 12.5839 12.3399 12.9001 11.5 12.9001C10.6601 12.9001 9.85469 12.5839 9.26083 12.021C8.66696 11.4582 8.33333 10.6948 8.33333 9.89885C8.33333 9.10288 8.66696 8.33951 9.26083 7.77667C9.85469 7.21383 10.6601 6.89763 11.5 6.89763Z" fill="white" fill-opacity="0.8"/>
</g>
<defs>
<clipPath id="clip0_19_274">
<rect width="24" height="23.9476" fill="white" transform="translate(0 0.895199)"/>
</clipPath>
</defs>
</svg>
