<svg width="24" height="25" viewBox="0 0 24 25" fill="none" xmlns="http://www.w3.org/2000/svg">
<g clip-path="url(#clip0_13_29)">
<path d="M7.72935 2.04681C7.36842 1.17688 6.4169 0.713848 5.50757 0.961732L1.38275 2.08423C0.567163 2.30873 0 3.0477 0 3.88957C0 15.4606 9.40271 24.8428 20.9991 24.8428C21.8428 24.8428 22.5834 24.2769 22.8084 23.4631L23.9333 19.3473C24.1817 18.4399 23.7177 17.4905 22.8459 17.1303L18.3461 15.2595C17.582 14.9415 16.6961 15.1613 16.1758 15.802L14.2822 18.1078C10.9823 16.5504 8.31057 13.8844 6.7497 10.5918L9.06054 8.70694C9.7027 8.18311 9.923 7.30383 9.60426 6.54146L7.72935 2.05149V2.04681Z" fill="white" fill-opacity="0.8"/>
</g>
<defs>
<clipPath id="clip0_13_29">
<rect width="24" height="23.9476" fill="white" transform="translate(0 0.895199)"/>
</clipPath>
</defs>
</svg>
